<svg height="300" viewBox="0 0 1012 300" width="1012" xmlns="http://www.w3.org/2000/svg">
  <style>
    .background {fill: #0d1117}
    .text {fill: #fff}
    .accent {fill: #7c3aed}
    
    @media (prefers-color-scheme: light) {
      .background {fill: #fff}
      .text {fill: #0d1117}
    }
  </style>
  <rect class="background" height="300" width="1012" x="0" y="0"/>
  <path class="accent" d="M 308.265 172.8 C 306.105 172.8 304.155 172.42 302.415 171.66 C 300.675 170.9 299.195 169.81 297.975 168.39 C 296.755 166.97 295.825 165.27 295.185 163.29 C 294.545 161.31 294.225 159.08 294.225 156.6 C 294.225 154.16 294.545 151.94 295.185 149.94 C 295.825 147.94 296.755 146.23 297.975 144.81 C 299.195 143.39 300.675 142.3 302.415 141.54 C 304.155 140.78 306.105 140.4 308.265 140.4 C 310.425 140.4 312.375 140.78 314.115 141.54 C 315.855 142.3 317.335 143.39 318.555 144.81 C 319.775 146.23 320.705 147.94 321.345 149.94 C 321.985 151.94 322.305 154.16 322.305 156.6 C 322.305 159.08 321.985 161.31 321.345 163.29 C 320.705 165.27 319.775 166.97 318.555 168.39 C 317.335 169.81 315.855 170.9 314.115 171.66 C 312.375 172.42 310.425 172.8 308.265 172.8 Z M 308.265 168.66 C 310.945 168.66 313.105 167.86 314.745 166.26 C 316.385 164.66 317.205 162.18 317.205 158.82 L 317.205 154.38 C 317.205 151.02 316.385 148.54 314.745 146.94 C 313.105 145.34 310.945 144.54 308.265 144.54 C 305.585 144.54 303.425 145.34 301.785 146.94 C 300.145 148.54 299.325 151.02 299.325 154.38 L 299.325 158.82 C 299.325 162.18 300.145 164.66 301.785 166.26 C 303.425 167.86 305.585 168.66 308.265 168.66 Z M 331.954 127.68 L 336.754 127.68 L 336.754 146.16 L 336.994 146.16 C 338.994 142.32 342.174 140.4 346.534 140.4 C 350.334 140.4 353.304 141.82 355.444 144.66 C 357.584 147.5 358.654 151.48 358.654 156.6 C 358.654 161.72 357.584 165.7 355.444 168.54 C 353.304 171.38 350.334 172.8 346.534 172.8 C 342.174 172.8 338.994 170.88 336.994 167.04 L 336.754 167.04 L 336.754 172.08 L 331.954 172.08 L 331.954 127.68 Z M 344.674 168.54 C 347.474 168.54 349.644 167.69 351.184 165.99 C 352.724 164.29 353.494 162.04 353.494 159.24 L 353.494 153.96 C 353.494 151.16 352.724 148.91 351.184 147.21 C 349.644 145.51 347.474 144.66 344.674 144.66 C 343.594 144.66 342.574 144.8 341.614 145.08 C 340.654 145.36 339.814 145.77 339.094 146.31 C 338.374 146.85 337.804 147.51 337.384 148.29 C 336.964 149.07 336.754 149.98 336.754 151.02 L 336.754 162.18 C 336.754 163.22 336.964 164.13 337.384 164.91 C 337.804 165.69 338.374 166.35 339.094 166.89 C 339.814 167.43 340.654 167.84 341.614 168.12 C 342.574 168.4 343.594 168.54 344.674 168.54 Z M 380.612 172.8 C 377.372 172.8 374.582 172.25 372.242 171.15 C 369.902 170.05 367.912 168.58 366.272 166.74 L 369.512 163.92 C 370.992 165.48 372.612 166.68 374.372 167.52 C 376.132 168.36 378.252 168.78 380.732 168.78 C 383.132 168.78 385.102 168.35 386.642 167.49 C 388.182 166.63 388.952 165.28 388.952 163.44 C 388.952 162.64 388.802 161.97 388.502 161.43 C 388.202 160.89 387.792 160.46 387.272 160.14 C 386.752 159.82 386.172 159.57 385.532 159.39 C 384.892 159.21 384.212 159.06 383.492 158.94 L 378.632 158.22 C 377.552 158.06 376.382 157.84 375.122 157.56 C 373.862 157.28 372.712 156.83 371.672 156.21 C 370.632 155.59 369.762 154.76 369.062 153.72 C 368.362 152.68 368.012 151.32 368.012 149.64 C 368.012 148.08 368.322 146.73 368.942 145.59 C 369.562 144.45 370.432 143.49 371.552 142.71 C 372.672 141.93 373.992 141.35 375.512 140.97 C 377.032 140.59 378.692 140.4 380.492 140.4 C 383.292 140.4 385.722 140.84 387.782 141.72 C 389.842 142.6 391.612 143.82 393.092 145.38 L 389.972 148.32 C 389.612 147.88 389.162 147.43 388.622 146.97 C 388.082 146.51 387.422 146.09 386.642 145.71 C 385.862 145.33 384.952 145.02 383.912 144.78 C 382.872 144.54 381.672 144.42 380.312 144.42 C 377.872 144.42 376.002 144.84 374.702 145.68 C 373.402 146.52 372.752 147.74 372.752 149.34 C 372.752 150.14 372.902 150.81 373.202 151.35 C 373.502 151.89 373.912 152.32 374.432 152.64 C 374.952 152.96 375.542 153.21 376.202 153.39 C 376.862 153.57 377.532 153.72 378.212 153.84 L 383.072 154.56 C 384.192 154.72 385.372 154.94 386.612 155.22 C 387.852 155.5 388.992 155.95 390.032 156.57 C 391.072 157.19 391.942 158.02 392.642 159.06 C 393.342 160.1 393.692 161.46 393.692 163.14 C 393.692 166.22 392.502 168.6 390.122 170.28 C 387.742 171.96 384.572 172.8 380.612 172.8 Z M 418.161 134.28 C 416.761 134.28 415.781 133.99 415.221 133.41 C 414.661 132.83 414.381 132.1 414.381 131.22 L 414.381 130.26 C 414.381 129.38 414.661 128.65 415.221 128.07 C 415.781 127.49 416.761 127.2 418.161 127.2 C 419.561 127.2 420.541 127.49 421.101 128.07 C 421.661 128.65 421.941 129.38 421.941 130.26 L 421.941 131.22 C 421.941 132.1 421.661 132.83 421.101 133.41 C 420.541 133.99 419.561 134.28 418.161 134.28 Z M 404.601 168 L 415.761 168 L 415.761 145.2 L 404.601 145.2 L 404.601 141.12 L 420.561 141.12 L 420.561 168 L 431.001 168 L 431.001 172.08 L 404.601 172.08 L 404.601 168 Z M 459.738 167.04 L 459.498 167.04 C 457.498 170.88 454.318 172.8 449.958 172.8 C 446.158 172.8 443.188 171.38 441.048 168.54 C 438.908 165.7 437.838 161.72 437.838 156.6 C 437.838 151.48 438.908 147.5 441.048 144.66 C 443.188 141.82 446.158 140.4 449.958 140.4 C 454.318 140.4 457.498 142.32 459.498 146.16 L 459.738 146.16 L 459.738 127.68 L 464.538 127.68 L 464.538 172.08 L 459.738 172.08 L 459.738 167.04 Z M 451.818 168.54 C 452.898 168.54 453.918 168.4 454.878 168.12 C 455.838 167.84 456.678 167.43 457.398 166.89 C 458.118 166.35 458.688 165.69 459.108 164.91 C 459.528 164.13 459.738 163.22 459.738 162.18 L 459.738 151.02 C 459.738 149.98 459.528 149.07 459.108 148.29 C 458.688 147.51 458.118 146.85 457.398 146.31 C 456.678 145.77 455.838 145.36 454.878 145.08 C 453.918 144.8 452.898 144.66 451.818 144.66 C 449.018 144.66 446.848 145.51 445.308 147.21 C 443.768 148.91 442.998 151.16 442.998 153.96 L 442.998 159.24 C 442.998 162.04 443.768 164.29 445.308 165.99 C 446.848 167.69 449.018 168.54 451.818 168.54 Z M 490.156 134.28 C 488.756 134.28 487.776 133.99 487.216 133.41 C 486.656 132.83 486.376 132.1 486.376 131.22 L 486.376 130.26 C 486.376 129.38 486.656 128.65 487.216 128.07 C 487.776 127.49 488.756 127.2 490.156 127.2 C 491.556 127.2 492.536 127.49 493.096 128.07 C 493.656 128.65 493.936 129.38 493.936 130.26 L 493.936 131.22 C 493.936 132.1 493.656 132.83 493.096 133.41 C 492.536 133.99 491.556 134.28 490.156 134.28 Z M 476.596 168 L 487.756 168 L 487.756 145.2 L 476.596 145.2 L 476.596 141.12 L 492.556 141.12 L 492.556 168 L 502.996 168 L 502.996 172.08 L 476.596 172.08 L 476.596 168 Z M 535.925 172.08 C 534.045 172.08 532.705 171.6 531.905 170.64 C 531.105 169.68 530.605 168.48 530.405 167.04 L 530.105 167.04 C 529.425 168.84 528.335 170.25 526.835 171.27 C 525.335 172.29 523.325 172.8 520.805 172.8 C 517.565 172.8 514.985 171.96 513.065 170.28 C 511.145 168.6 510.185 166.3 510.185 163.38 C 510.185 160.5 511.235 158.28 513.335 156.72 C 515.435 155.16 518.825 154.38 523.505 154.38 L 530.105 154.38 L 530.105 151.32 C 530.105 149.04 529.465 147.33 528.185 146.19 C 526.905 145.05 525.085 144.48 522.725 144.48 C 520.645 144.48 518.945 144.89 517.625 145.71 C 516.305 146.53 515.245 147.64 514.445 149.04 L 511.205 146.64 C 511.605 145.84 512.145 145.06 512.825 144.3 C 513.505 143.54 514.345 142.87 515.345 142.29 C 516.345 141.71 517.485 141.25 518.765 140.91 C 520.045 140.57 521.465 140.4 523.025 140.4 C 526.665 140.4 529.555 141.32 531.695 143.16 C 533.835 145 534.905 147.56 534.905 150.84 L 534.905 167.88 L 539.225 167.88 L 539.225 172.08 L 535.925 172.08 Z M 521.645 168.78 C 522.885 168.78 524.015 168.63 525.035 168.33 C 526.055 168.03 526.945 167.63 527.705 167.13 C 528.465 166.63 529.055 166.03 529.475 165.33 C 529.895 164.63 530.105 163.88 530.105 163.08 L 530.105 157.98 L 523.505 157.98 C 520.625 157.98 518.525 158.38 517.205 159.18 C 515.885 159.98 515.225 161.14 515.225 162.66 L 515.225 163.92 C 515.225 165.52 515.795 166.73 516.935 167.55 C 518.075 168.37 519.645 168.78 521.645 168.78 Z M 548.103 172.08 L 548.103 141.12 L 552.903 141.12 L 552.903 146.16 L 553.143 146.16 C 553.463 145.4 553.863 144.67 554.343 143.97 C 554.823 143.27 555.413 142.66 556.113 142.14 C 556.813 141.62 557.643 141.2 558.603 140.88 C 559.563 140.56 560.683 140.4 561.963 140.4 C 565.203 140.4 567.803 141.43 569.763 143.49 C 571.723 145.55 572.703 148.46 572.703 152.22 L 572.703 172.08 L 567.903 172.08 L 567.903 153.06 C 567.903 150.22 567.283 148.11 566.043 146.73 C 564.803 145.35 562.983 144.66 560.583 144.66 C 559.623 144.66 558.683 144.78 557.763 145.02 C 556.843 145.26 556.023 145.62 555.303 146.1 C 554.583 146.58 554.003 147.2 553.563 147.96 C 553.123 148.72 552.903 149.6 552.903 150.6 L 552.903 172.08 L 548.103 172.08 Z"/>
  <path class="text" d="M 587.54 156.36 L 587.54 151.32 L 604.94 151.32 L 604.94 156.36 L 587.54 156.36 Z M 632.769 172.8 C 630.529 172.8 628.519 172.42 626.739 171.66 C 624.959 170.9 623.439 169.81 622.179 168.39 C 620.919 166.97 619.949 165.27 619.269 163.29 C 618.589 161.31 618.249 159.1 618.249 156.66 C 618.249 154.18 618.599 151.94 619.299 149.94 C 619.999 147.94 620.969 146.23 622.209 144.81 C 623.449 143.39 624.939 142.3 626.679 141.54 C 628.419 140.78 630.349 140.4 632.469 140.4 C 634.549 140.4 636.439 140.78 638.139 141.54 C 639.839 142.3 641.289 143.35 642.489 144.69 C 643.689 146.03 644.609 147.62 645.249 149.46 C 645.889 151.3 646.209 153.32 646.209 155.52 L 646.209 157.8 L 623.289 157.8 L 623.289 159.24 C 623.289 160.6 623.509 161.86 623.949 163.02 C 624.389 164.18 625.019 165.18 625.839 166.02 C 626.659 166.86 627.659 167.51 628.839 167.97 C 630.019 168.43 631.329 168.66 632.769 168.66 C 634.849 168.66 636.649 168.18 638.169 167.22 C 639.689 166.26 640.849 164.94 641.649 163.26 L 645.189 165.66 C 644.269 167.74 642.739 169.45 640.599 170.79 C 638.459 172.13 635.849 172.8 632.769 172.8 Z M 632.469 144.36 C 631.149 144.36 629.929 144.6 628.809 145.08 C 627.689 145.56 626.719 146.22 625.899 147.06 C 625.079 147.9 624.439 148.89 623.979 150.03 C 623.519 151.17 623.289 152.42 623.289 153.78 L 623.289 154.2 L 641.049 154.2 L 641.049 153.54 C 641.049 152.18 640.839 150.94 640.419 149.82 C 639.999 148.7 639.419 147.73 638.679 146.91 C 637.939 146.09 637.039 145.46 635.979 145.02 C 634.919 144.58 633.749 144.36 632.469 144.36 Z M 653.887 172.08 L 665.407 156.36 L 654.187 141.12 L 659.947 141.12 L 664.627 147.66 L 668.347 152.82 L 668.587 152.82 L 672.187 147.66 L 676.807 141.12 L 682.327 141.12 L 670.987 156.3 L 682.627 172.08 L 676.867 172.08 L 671.647 164.82 L 668.107 159.9 L 667.867 159.9 L 664.447 164.82 L 659.407 172.08 L 653.887 172.08 Z M 705.716 172.08 C 703.356 172.08 701.626 171.42 700.526 170.1 C 699.426 168.78 698.876 167.08 698.876 165 L 698.876 145.2 L 688.556 145.2 L 688.556 141.12 L 696.236 141.12 C 697.276 141.12 698.006 140.91 698.426 140.49 C 698.846 140.07 699.056 139.34 699.056 138.3 L 699.056 130.2 L 703.676 130.2 L 703.676 141.12 L 717.776 141.12 L 717.776 145.2 L 703.676 145.2 L 703.676 168 L 717.776 168 L 717.776 172.08 L 705.716 172.08 Z"/>
</svg>